<svg xmlns="http://www.w3.org/2000/svg" fill="#000000" class="bi bi-grid-3x3-gap-fill" viewBox="0 0 16 16" id="Grid-3x3-Gap-Fill--Streamline-Bootstrap.svg" height="16" width="16"><desc>Grid 3x3 Gap Fill Streamline Icon: https://streamlinehq.com</desc><path d="M1 2a1 1 0 0 1 1 -1h2a1 1 0 0 1 1 1v2a1 1 0 0 1 -1 1H2a1 1 0 0 1 -1 -1zm5 0a1 1 0 0 1 1 -1h2a1 1 0 0 1 1 1v2a1 1 0 0 1 -1 1H7a1 1 0 0 1 -1 -1zm5 0a1 1 0 0 1 1 -1h2a1 1 0 0 1 1 1v2a1 1 0 0 1 -1 1h-2a1 1 0 0 1 -1 -1zM1 7a1 1 0 0 1 1 -1h2a1 1 0 0 1 1 1v2a1 1 0 0 1 -1 1H2a1 1 0 0 1 -1 -1zm5 0a1 1 0 0 1 1 -1h2a1 1 0 0 1 1 1v2a1 1 0 0 1 -1 1H7a1 1 0 0 1 -1 -1zm5 0a1 1 0 0 1 1 -1h2a1 1 0 0 1 1 1v2a1 1 0 0 1 -1 1h-2a1 1 0 0 1 -1 -1zM1 12a1 1 0 0 1 1 -1h2a1 1 0 0 1 1 1v2a1 1 0 0 1 -1 1H2a1 1 0 0 1 -1 -1zm5 0a1 1 0 0 1 1 -1h2a1 1 0 0 1 1 1v2a1 1 0 0 1 -1 1H7a1 1 0 0 1 -1 -1zm5 0a1 1 0 0 1 1 -1h2a1 1 0 0 1 1 1v2a1 1 0 0 1 -1 1h-2a1 1 0 0 1 -1 -1z" stroke-width="1"></path></svg>